# xmcd
#
# Track frame offsets:
# 150
# 39836
# 71023
# 99954
# 163055
# 182724
# 235223
# 289446
#
# Disc length: 4077 seconds
#
#
# Revision: 0
# Processed by: cddbd v1.5.1PL0 Copyright (c) Steve Scherf et al.
# Submitted via: FreeRIP 2.52 
#
DISCID=6a0feb08
DTITLE=Atta - Maryam
DYEAR=2003
DGENRE=World - Persian
TTITLE0=Maryam
TTITLE1=Boy-e bahar
TTITLE2=Naam-e toe
TTITLE3=Shahre ma
TTITLE4=Baad-e sabaa
TTITLE5=Ay Adamaa
TTITLE6=Sedaam kon
TTITLE7=Eshtebah
EXTD=
EXTT0=
EXTT1=
EXTT2=
EXTT3=
EXTT4=
EXTT5=
EXTT6=
EXTT7=
PLAYORDER=
